<svg version="1.0" xmlns="http://www.w3.org/2000/svg"
 width="1600.000000pt" height="748.000000pt" viewBox="0 0 1600 748"
 preserveAspectRatio="xMidYMid meet">

<g transform="translate(0,748) scale(0.1,-0.1)"
fill="currentColor" stroke="none">
<path d="M8714 7122 c-193 -91 -405 -753 -569 -1782 -18 -118 -32 -216 -30
-218 4 -4 152 177 251 308 340 449 551 847 609 1150 31 164 18 357 -30 450
-46 88 -149 129 -231 92z"/>
<path d="M7174 7045 c-151 -77 -327 -474 -458 -1036 -34 -143 -102 -486 -116
-584 -7 -44 -23 -142 -37 -218 -13 -76 -23 -145 -21 -153 5 -24 226 250 384
476 245 352 444 737 504 973 33 132 43 237 30 318 -19 124 -58 192 -132 230
-50 26 -94 24 -154 -6z"/>
<path d="M3635 6293 c-68 -21 -167 -86 -215 -140 -48 -55 -127 -173 -146 -219
-8 -19 -18 -34 -24 -34 -5 0 -18 21 -29 46 -32 72 -76 119 -166 179 -117 78
-177 98 -300 99 -90 1 -106 -2 -157 -27 -103 -51 -180 -163 -213 -311 -37
-166 3 -351 121 -558 90 -158 157 -242 339 -424 134 -134 365 -334 386 -334
12 0 212 181 324 294 453 456 656 861 577 1148 -49 176 -186 286 -365 294 -56
2 -98 -2 -132 -13z"/>
<path d="M11630 6194 c-207 -115 -397 -310 -499 -511 -57 -112 -136 -381 -118
-400 4 -3 9 8 12 23 13 59 56 196 61 191 3 -2 -4 -32 -16 -66 -34 -101 -22
-102 19 0 21 53 49 116 61 140 35 68 162 270 167 265 3 -3 -9 -26 -26 -51 -39
-58 -156 -271 -182 -332 -31 -73 -15 -61 32 24 65 119 216 341 314 462 63 78
155 183 198 228 28 29 49 55 46 57 -3 3 -33 -11 -69 -30z m-376 -396 c-36 -51
-88 -138 -116 -193 -27 -55 -47 -89 -43 -75 20 80 187 360 215 360 5 0 -20
-42 -56 -92z"/>
<path d="M12885 6181 c-134 -51 -256 -125 -348 -211 -69 -65 -167 -192 -167
-218 0 -18 26 -7 68 29 23 20 132 100 242 179 110 78 212 154 227 168 16 14
52 41 82 59 51 31 53 33 25 33 -16 -1 -74 -18 -129 -39z m5 -46 c0 -8 -98 -55
-112 -54 -7 0 14 14 47 29 68 33 65 32 65 25z m-216 -140 c-10 -8 -23 -15 -28
-15 -6 0 -1 7 10 15 10 8 23 15 28 15 6 0 1 -7 -10 -15z m-114 -98 c0 -2 -15
-13 -32 -26 l-33 -22 28 25 c26 24 37 31 37 23z"/>
<path d="M11659 6133 c-119 -128 -312 -390 -429 -583 -71 -117 -88 -150 -77
-150 2 0 25 30 52 68 27 37 53 72 58 77 4 6 14 19 21 29 12 17 13 17 19 2 4
-10 3 -14 -3 -11 -5 3 -14 -5 -21 -17 -7 -13 -38 -57 -69 -98 -58 -77 -90
-125 -90 -135 0 -10 148 110 218 177 112 109 218 258 278 393 35 80 101 295
91 295 -2 0 -24 -21 -48 -47z m24 -8 c-3 -9 -8 -14 -10 -11 -3 3 -2 9 2 15 9
16 15 13 8 -4z m-63 -75 c-6 -11 -13 -20 -16 -20 -2 0 0 9 6 20 6 11 13 20 16
20 2 0 0 -9 -6 -20z m-4 -67 c-8 -15 -15 -25 -16 -21 0 12 23 58 27 54 3 -2
-2 -17 -11 -33z m-140 -165 c-53 -79 -110 -159 -127 -178 -46 -52 -19 -3 53
94 33 44 83 115 111 158 28 43 52 76 55 74 2 -3 -39 -69 -92 -148z m51 -10
c-51 -99 -87 -155 -143 -225 -51 -63 -204 -221 -204 -210 0 4 41 51 91 105
103 109 154 175 203 259 18 32 45 79 60 106 44 77 40 53 -7 -35z"/>
<path d="M12896 6092 c-54 -42 -124 -96 -155 -120 -235 -180 -288 -223 -306
-243 -17 -19 -12 -18 38 10 62 35 79 36 21 1 -19 -12 -33 -25 -30 -27 3 -3 33
12 68 33 78 46 78 46 78 40 0 -5 -147 -96 -156 -96 -3 0 -2 5 1 10 3 6 2 10
-4 10 -5 0 -13 -5 -16 -11 -4 -5 -19 -15 -33 -21 -15 -6 -22 -12 -15 -15 7 -2
21 0 32 6 11 6 27 11 36 11 9 0 68 25 131 56 94 46 129 69 198 135 46 43 105
111 131 151 26 40 55 84 65 98 46 70 37 67 -84 -28z m-71 -122 c-16 -16 -31
-28 -33 -25 -4 4 48 54 57 55 3 0 -8 -13 -24 -30z m-100 -78 c-29 -24 -123
-91 -142 -101 -51 -26 -30 -7 53 49 80 54 114 74 89 52z"/>
<path d="M13890 5890 c-169 -18 -313 -89 -438 -218 -119 -123 -121 -131 -10
-76 51 26 138 72 193 104 55 31 107 60 115 64 63 29 175 97 173 105 -2 6 3 8
10 5 7 -2 21 2 32 10 11 9 16 15 10 14 -5 0 -44 -4 -85 -8z m-44 -46 c-38 -13
-71 -22 -73 -20 -7 6 100 45 122 45 11 0 -11 -11 -49 -25z m-287 -117 c-2 -1
-15 -11 -29 -22 l-25 -20 19 23 c11 12 24 22 29 22 6 0 8 -1 6 -3z"/>
<path d="M15144 5884 c-111 -18 -289 -84 -382 -140 -93 -55 -185 -124 -178
-131 2 -3 15 2 28 11 25 18 42 21 33 6 -7 -11 48 8 273 94 95 37 237 87 315
112 78 25 153 49 167 54 42 14 -166 9 -256 -6z m66 -18 c-158 -36 -462 -160
-523 -214 -9 -8 -20 -13 -23 -10 -10 11 101 77 207 121 155 67 311 115 369
115 14 0 0 -6 -30 -12z"/>
<path d="M13873 5811 c-228 -126 -433 -246 -433 -253 0 -9 43 4 114 36 32 15
61 25 63 22 10 -9 -59 -44 -142 -71 -47 -16 -85 -33 -85 -37 0 -5 8 -7 18 -4
9 2 37 8 62 11 118 19 279 104 384 204 70 67 131 139 125 145 -2 2 -50 -21
-106 -53z m-88 -97 c-45 -39 -124 -89 -130 -82 -4 4 153 115 165 117 3 0 -13
-16 -35 -35z"/>
<path d="M15295 5834 c-190 -64 -300 -107 -390 -150 -49 -23 -108 -50 -130
-59 -22 -10 -35 -19 -29 -21 11 -5 130 32 196 60 21 9 43 16 50 16 27 -1 -32
-26 -182 -77 -156 -53 -166 -71 -20 -34 79 20 226 75 248 93 7 6 15 8 18 5 18
-17 -220 -105 -346 -127 -83 -14 -95 -19 -58 -19 96 -2 275 52 424 127 73 37
334 207 334 218 0 7 -11 4 -115 -32z m-105 -74 c0 -5 -5 -10 -11 -10 -5 0 -7
5 -4 10 3 6 8 10 11 10 2 0 4 -4 4 -10z m-110 -45 c0 -2 -10 -9 -22 -15 -22
-11 -22 -10 -4 4 21 17 26 19 26 11z"/>
<path d="M10637 5599 c-95 -320 -121 -417 -148 -533 -29 -132 -34 -165 -23
-153 14 13 88 187 114 267 16 47 29 78 29 69 1 -16 -36 -128 -63 -191 -27 -64
-17 -66 16 -3 47 90 86 214 97 307 15 125 20 248 13 292 -7 39 -7 39 -35 -55z
m-20 -321 c-3 -8 -6 -5 -6 6 -1 11 2 17 5 13 3 -3 4 -12 1 -19z"/>
<path d="M10559 5603 c-46 -53 -125 -223 -148 -323 -23 -92 -30 -303 -11 -315
6 -4 10 33 11 102 1 59 4 119 8 133 4 14 6 -38 3 -115 -2 -77 -2 -137 2 -134
4 3 11 54 16 113 9 108 48 267 95 393 14 37 25 74 23 82 -1 9 8 35 20 59 12
23 21 42 18 42 -2 0 -19 -17 -37 -37z m-29 -104 c-12 -22 -39 -93 -61 -157
-22 -64 -37 -99 -34 -77 8 45 80 242 96 262 20 24 20 14 -1 -28z"/>
<path d="M10583 5555 c-22 -42 -84 -238 -103 -322 -35 -160 -20 -151 29 17 26
91 58 195 70 233 22 66 25 112 4 72z"/>
<path d="M11830 5336 c0 -3 49 -30 109 -61 114 -58 293 -174 396 -255 66 -52
222 -151 233 -148 4 1 18 -4 30 -11 49 -27 29 0 -78 102 -60 58 -110 110 -110
116 0 16 -114 112 -181 153 -34 20 -96 49 -139 63 -84 28 -182 47 -174 33 3
-4 11 -8 19 -8 17 0 176 -62 172 -67 -2 -2 -53 14 -113 35 -116 41 -164 55
-164 48z m339 -112 c14 -12 -19 -1 -35 12 -18 14 -18 14 6 3 14 -6 27 -13 29
-15z m113 -63 c42 -28 79 -55 83 -61 3 -6 -33 15 -82 46 -101 65 -100 64 -87
64 6 0 44 -22 86 -49z m-92 13 c0 -2 -9 0 -20 6 -11 6 -20 13 -20 16 0 2 9 0
20 -6 11 -6 20 -13 20 -16z m79 -51 c2 -2 -1 -3 -7 -3 -6 0 -24 12 -39 26
l-28 26 35 -23 c19 -12 37 -24 39 -26z m132 -104 c13 -26 7 -24 -22 7 -17 19
-19 23 -6 18 10 -3 22 -15 28 -25z m40 -36 c13 -16 12 -17 -3 -4 -10 7 -18 15
-18 17 0 8 8 3 21 -13z"/>
<path d="M11923 5236 c9 -7 17 -17 17 -21 0 -5 10 -20 23 -33 20 -22 20 -24 2
-14 -11 5 -29 20 -40 32 -42 46 -58 41 -18 -6 105 -124 255 -249 368 -306 52
-27 224 -78 258 -77 27 0 29 2 12 9 -11 5 -14 9 -7 9 7 1 24 -6 37 -15 13 -9
30 -14 36 -12 6 2 -46 41 -117 87 -71 45 -176 117 -235 159 -58 42 -157 105
-220 140 -108 58 -156 78 -116 48z m83 -57 c3 -6 -5 -3 -20 6 -14 10 -26 19
-26 22 0 7 39 -17 46 -28z m107 -72 l32 -29 -31 19 c-17 10 -46 31 -65 46
l-34 29 33 -19 c19 -10 48 -31 65 -46z m-2 -43 c36 -28 89 -66 118 -84 28 -18
50 -35 47 -38 -7 -6 -103 57 -157 103 -19 16 -51 43 -70 58 -56 47 -9 17 62
-39z m154 -67 c27 -25 -55 26 -85 53 -32 29 -31 29 20 -6 30 -21 60 -42 65
-47z m143 -80 c29 -16 51 -31 49 -33 -5 -6 -125 61 -157 88 -22 18 -20 17 15
-3 22 -12 64 -36 93 -52z m-83 3 c3 -6 -1 -7 -9 -4 -18 7 -21 14 -7 14 6 0 13
-4 16 -10z m40 -28 c-3 -3 -11 0 -18 7 -9 10 -8 11 6 5 10 -3 15 -9 12 -12z"/>
<path d="M13875 5184 c6 -2 51 -15 100 -29 104 -30 354 -150 405 -195 33 -29
31 -28 -30 8 -112 67 -192 108 -277 140 -103 40 -127 41 -48 3 83 -41 62 -38
-41 5 -47 19 -88 33 -90 31 -5 -4 121 -77 132 -77 3 0 85 -42 182 -92 217
-114 297 -149 320 -141 9 3 14 3 10 -2 -7 -7 62 -48 69 -41 8 7 -172 157 -252
210 -139 93 -252 142 -388 171 -63 14 -116 19 -92 9z m295 -144 c22 -11 40
-23 40 -25 0 -5 -79 32 -89 41 -11 10 14 2 49 -16z m243 -135 c20 -14 37 -28
37 -31 0 -3 -12 3 -27 14 -16 10 -37 24 -48 30 -11 6 -15 12 -10 12 6 0 27
-11 48 -25z"/>
<path d="M13920 5067 c65 -52 173 -128 201 -142 37 -20 86 -55 75 -55 -11 0
-158 89 -181 110 -23 20 -65 43 -65 36 0 -15 171 -149 230 -180 126 -66 292
-107 428 -105 56 1 57 1 27 14 -16 8 -40 14 -52 15 -12 0 -28 7 -37 15 -8 8
-17 15 -20 15 -3 0 -15 8 -26 17 -11 10 -57 34 -103 54 -45 20 -168 78 -274
128 -179 85 -242 109 -203 78z m325 -167 c3 -6 -1 -7 -9 -4 -18 7 -21 14 -7
14 6 0 13 -4 16 -10z m40 -20 c3 -6 -1 -7 -9 -4 -18 7 -21 14 -7 14 6 0 13 -4
16 -10z m25 -51 c52 -27 23 -22 -35 7 -27 13 -39 21 -25 18 14 -4 41 -15 60
-25z m119 -1 c13 -5 21 -11 18 -14 -3 -3 -25 4 -49 15 -40 20 -22 19 31 -1z
m16 -43 l30 -14 -30 6 c-16 3 -37 9 -45 14 -27 15 11 10 45 -6z"/>
<path d="M10861 5004 c-47 -8 -87 -17 -90 -19 -2 -3 65 -3 150 1 153 6 337
-10 414 -36 34 -11 43 -12 -159 15 -134 18 -261 19 -341 1 -58 -13 -59 -14
-33 -24 15 -6 65 -16 110 -22 103 -13 455 -70 647 -105 78 -14 145 -24 148
-22 8 9 -81 56 -174 93 -48 20 -111 46 -140 60 -132 61 -368 87 -532 58z m107
-51 c-15 -2 -42 -2 -60 0 -18 2 -6 4 27 4 33 0 48 -2 33 -4z"/>
<path d="M10863 4903 c8 -12 111 -44 239 -74 54 -13 96 -25 94 -27 -7 -6 -110
17 -245 54 -121 35 -169 39 -98 9 21 -8 53 -22 72 -29 49 -21 44 -28 -7 -10
-64 22 -57 9 13 -27 95 -48 159 -67 282 -85 168 -25 375 -7 464 40 22 11 19
13 -34 24 -46 9 -559 94 -713 118 -19 3 -43 8 -54 11 -10 3 -16 1 -13 -4z
m214 -118 c32 -8 101 -21 153 -29 52 -7 79 -14 59 -15 -44 -1 -187 23 -249 43
-60 19 -37 20 37 1z m186 8 c-7 -2 -21 -2 -30 0 -10 3 -4 5 12 5 17 0 24 -2
18 -5z m65 -10 c-10 -2 -26 -2 -35 0 -10 3 -2 5 17 5 19 0 27 -2 18 -5z m110
-10 c-16 -2 -40 -2 -55 0 -16 2 -3 4 27 4 30 0 43 -2 28 -4z m160 -10 c-21 -2
-57 -2 -80 0 -24 2 -7 4 37 4 44 0 63 -2 43 -4z"/>
<path d="M8645 3466 c-166 -56 -262 -96 -350 -148 -162 -95 -267 -199 -335
-329 -38 -73 -44 -94 -48 -160 -5 -91 8 -139 49 -173 47 -40 88 -43 176 -11
207 76 421 289 551 550 34 69 95 223 117 293 9 31 -7 29 -160 -22z"/>
<path d="M13072 2284 c-118 -58 -172 -207 -138 -373 20 -96 50 -156 106 -212
108 -108 305 -106 397 6 48 57 68 133 67 245 -2 109 -22 175 -78 251 -76 103
-238 141 -354 83z"/>
<path d="M8503 2303 c-10 -3 -13 -42 -13 -144 l0 -139 45 0 c101 0 155 52 155
150 0 64 -26 115 -66 130 -26 10 -100 12 -121 3z"/>
<path d="M8490 1812 l0 -171 38 -10 c85 -24 175 2 212 61 17 27 20 46 18 105
-3 62 -7 76 -34 110 -42 51 -76 67 -161 71 l-73 4 0 -170z"/>
<path d="M9387 2087 c-26 -62 -47 -119 -47 -125 0 -9 32 -12 110 -12 61 0 110
4 110 9 0 15 -111 241 -118 241 -4 0 -29 -51 -55 -113z"/>
<path d="M11303 2296 l-33 -15 0 -308 c0 -169 4 -313 8 -320 22 -34 133 -43
219 -18 80 24 130 67 166 143 30 63 32 74 32 177 -1 89 -5 120 -23 165 -26 65
-86 130 -147 160 -58 28 -177 37 -222 16z"/>
<path d="M6720 551 l0 -71 70 0 c63 0 74 3 96 26 20 19 24 31 19 52 -11 46
-30 56 -110 60 l-75 4 0 -71z"/>
<path d="M8284 611 c-59 -27 -89 -80 -89 -156 1 -111 54 -178 144 -179 89 -2
142 63 143 177 1 50 -3 72 -21 101 -40 64 -112 87 -177 57z"/>
<path d="M10541 513 c-13 -38 -26 -74 -29 -80 -3 -10 13 -13 61 -13 l65 0 -31
80 c-17 44 -33 80 -36 80 -4 0 -17 -30 -30 -67z"/>
</g>
</svg>
